<svg width="48" height="48" viewBox="0 0 48 48" fill="none" xmlns="http://www.w3.org/2000/svg">
<path fill-rule="evenodd" clip-rule="evenodd" d="M6.81818 12.8637C6.36631 13.3156 6.36631 14.0482 6.81818 14.5001C7.27005 14.952 8.00267 14.952 8.45454 14.5001L9.27324 13.6814L13.3636 17.7718L10.0909 21.0446C9.63902 21.4965 9.63902 22.2292 10.0909 22.681C10.5428 23.1329 11.2754 23.1329 11.7272 22.681L13.3632 21.045L16.3181 23.9999H8.37441C7.74469 23.9999 7.14076 24.2527 6.69547 24.7028C6.25019 25.1528 6.00003 25.7632 6.00003 26.3996V29.9983C5.99395 32.7931 6.93225 35.5062 8.65965 37.6887C10.3871 39.8712 12.8 41.3921 15.4992 41.9999C18.1987 41.3925 20.612 39.8716 22.3397 37.6891C23.5568 36.1517 24.3822 34.351 24.7617 32.4437L27.2727 34.9549C28.9502 36.6324 31.4016 37.0644 33.4777 36.2509L34.6362 37.4094C35.242 38.0153 36.1002 38.215 36.8724 38.0085L39.5455 40.6817C39.9974 41.1336 40.73 41.1336 41.1818 40.6817C41.6337 40.2299 41.6337 39.4972 41.1818 39.0453L38.5083 36.3717C38.7142 35.5998 38.5144 34.7422 37.9089 34.1366L36.7504 32.9781C36.9538 32.4591 37.0794 31.9166 37.1271 31.3685C37.163 30.9554 37.1548 30.5391 37.1022 30.1275C36.9457 28.9009 36.3965 27.7148 35.4545 26.7728L21.545 12.863L23.1818 11.2263C23.6336 10.7744 23.6336 10.0417 23.1818 9.58989C22.7299 9.13801 21.9973 9.13802 21.5454 9.58989L18.2727 12.8626L14.1823 8.77223L15 7.95456C15.4518 7.50268 15.4518 6.77004 15 6.31816C14.5481 5.86628 13.8155 5.86628 13.3636 6.31816L6.81818 12.8637ZM26.5467 31.4003L31.9 26.0468L20.1308 14.2773L14.7774 19.6308L19.1465 23.9999H22.6256C23.2553 23.9999 23.8592 24.2527 24.3045 24.7028C24.7498 25.1528 25 25.7632 25 26.3996V29.8535L26.5467 31.4003ZM16.8585 14.2769L12.7681 10.1864L10.6874 12.2672L14.7778 16.3576L16.8585 14.2769ZM35.6707 34.7268C35.6011 34.8043 35.529 34.8804 35.4545 34.9549C35.3799 35.0294 35.3039 35.1015 35.2264 35.1712L36.0504 35.9952C36.1731 36.1179 36.372 36.1179 36.4947 35.9952C36.6174 35.8725 36.6174 35.6736 36.4947 35.5509L35.6707 34.7268ZM33.5364 27.6832L34.0403 28.1871C34.6458 28.7927 35.0033 29.5523 35.1128 30.3398C35.1522 30.6233 35.1595 30.9105 35.1346 31.1953C35.1032 31.554 35.0209 31.9091 34.8876 32.2488L32.7486 34.3879C31.3898 34.9211 29.785 34.6387 28.6869 33.5405L28.183 33.0367L33.5364 27.6832ZM17 28.9999C17 28.4476 16.5523 27.9999 16 27.9999C15.4477 27.9999 15 28.4476 15 28.9999V30.9999H13C12.4477 30.9999 12 31.4476 12 31.9999C12 32.5522 12.4477 32.9999 13 32.9999H15V34.9999C15 35.5522 15.4477 35.9999 16 35.9999C16.5523 35.9999 17 35.5522 17 34.9999V32.9999H19C19.5523 32.9999 20 32.5522 20 31.9999C20 31.4476 19.5523 30.9999 19 30.9999H17V28.9999Z" fill="#1C274C"/>
</svg>
