<svg width="48" height="48" viewBox="0 0 48 48" fill="none" xmlns="http://www.w3.org/2000/svg">
<path fill-rule="evenodd" clip-rule="evenodd" d="M20 7C20 6.44772 20.4477 6 21 6H25C25.5523 6 26 6.44772 26 7C26 7.55228 25.5523 8 25 8H21C20.4477 8 20 7.55228 20 7Z" fill="#509CFF"/>
<path fill-rule="evenodd" clip-rule="evenodd" d="M23 6C23.5523 6 24 6.44772 24 7V11C24 11.5523 23.5523 12 23 12C22.4477 12 22 11.5523 22 11V7C22 6.44772 22.4477 6 23 6Z" fill="#509CFF"/>
<path fill-rule="evenodd" clip-rule="evenodd" d="M7 20C7.55228 20 8 20.4477 8 21V25C8 25.5523 7.55228 26 7 26C6.44772 26 6 25.5523 6 25V21C6 20.4477 6.44772 20 7 20Z" fill="#509CFF"/>
<path fill-rule="evenodd" clip-rule="evenodd" d="M6 23C6 22.4477 6.44772 22 7 22H11C11.5523 22 12 22.4477 12 23C12 23.5523 11.5523 24 11 24H7C6.44772 24 6 23.5523 6 23Z" fill="#509CFF"/>
<path fill-rule="evenodd" clip-rule="evenodd" d="M32.1923 9.56487C32.5828 9.17434 33.216 9.17434 33.6065 9.56487L36.4349 12.3933C36.8255 12.7838 36.8255 13.417 36.4349 13.8075C36.0444 14.198 35.4112 14.198 35.0207 13.8075L32.1923 10.9791C31.8018 10.5885 31.8018 9.95539 32.1923 9.56487Z" fill="#509CFF"/>
<path fill-rule="evenodd" clip-rule="evenodd" d="M35.0209 10.9792C35.4114 11.3697 35.4114 12.0028 35.0209 12.3934L32.1925 15.2218C31.802 15.6123 31.1688 15.6123 30.7783 15.2218C30.3877 14.8313 30.3877 14.1981 30.7783 13.8076L33.6067 10.9792C33.9972 10.5886 34.6304 10.5886 35.0209 10.9792Z" fill="#509CFF"/>
<path fill-rule="evenodd" clip-rule="evenodd" d="M13.8075 9.56486C14.198 9.95539 14.198 10.5885 13.8075 10.9791L10.9791 13.8075C10.5886 14.198 9.95539 14.198 9.56486 13.8075C9.17434 13.417 9.17434 12.7838 9.56486 12.3933L12.3933 9.56486C12.7838 9.17434 13.417 9.17434 13.8075 9.56486Z" fill="#509CFF"/>
<path fill-rule="evenodd" clip-rule="evenodd" d="M10.9792 10.9792C11.3697 10.5886 12.0029 10.5886 12.3934 10.9792L15.2218 13.8076C15.6124 14.1981 15.6124 14.8313 15.2218 15.2218C14.8313 15.6123 14.1981 15.6123 13.8076 15.2218L10.9792 12.3934C10.5887 12.0028 10.5887 11.3697 10.9792 10.9792Z" fill="#509CFF"/>
<path fill-rule="evenodd" clip-rule="evenodd" d="M13.8075 36.4351C13.4169 36.8257 12.7838 36.8257 12.3933 36.4351L9.56486 33.6067C9.17434 33.2162 9.17434 32.583 9.56486 32.1925C9.95538 31.802 10.5885 31.802 10.979 32.1925L13.8075 35.0209C14.198 35.4114 14.198 36.0446 13.8075 36.4351Z" fill="#509CFF"/>
<path fill-rule="evenodd" clip-rule="evenodd" d="M10.9792 35.0208C10.5887 34.6303 10.5887 33.9971 10.9792 33.6066L13.8077 30.7782C14.1982 30.3877 14.8314 30.3877 15.2219 30.7782C15.6124 31.1687 15.6124 31.8019 15.2219 32.1924L12.3935 35.0208C12.0029 35.4113 11.3698 35.4113 10.9792 35.0208Z" fill="#509CFF"/>
<path fill-rule="evenodd" clip-rule="evenodd" d="M22.454 34.9878C22.159 34.0443 22 33.0407 22 32C22 26.4772 26.4772 22 32 22C33.0407 22 34.0443 22.159 34.9878 22.454C34.7024 16.08 29.4444 11 23 11C16.3726 11 11 16.3726 11 23C11 29.4444 16.08 34.7024 22.454 34.9878ZM19 23C20.6569 23 22 21.6569 22 20C22 18.3431 20.6569 17 19 17C17.3431 17 16 18.3431 16 20C16 21.6569 17.3431 23 19 23Z" fill="#509CFF"/>
<path fill-rule="evenodd" clip-rule="evenodd" d="M32 26C28.6863 26 26 28.6863 26 32C26 35.3137 28.6863 38 32 38C35.3137 38 38 35.3137 38 32C38 28.6863 35.3137 26 32 26ZM24 32C24 27.5817 27.5817 24 32 24C36.4183 24 40 27.5817 40 32C40 36.4183 36.4183 40 32 40C27.5817 40 24 36.4183 24 32Z" fill="#509CFF"/>
<path fill-rule="evenodd" clip-rule="evenodd" d="M36.2929 36.2929C36.6834 35.9024 37.3166 35.9024 37.7071 36.2929L42.7071 41.2929C43.0976 41.6834 43.0976 42.3166 42.7071 42.7071C42.3166 43.0976 41.6834 43.0976 41.2929 42.7071L36.2929 37.7071C35.9024 37.3166 35.9024 36.6834 36.2929 36.2929Z" fill="#509CFF"/>
</svg>
